<svg version="1.1" xmlns="http://www.w3.org/2000/svg" xmlns:xlink="http://www.w3.org/1999/xlink" width="72px" height="72px" viewBox="0,0,72,72">
  <g fill="#ffffff" fill-rule="nonzero" stroke="none" stroke-width="1" stroke-linecap="butt" stroke-linejoin="miter" stroke-miterlimit="10" stroke-dasharray="" stroke-dashoffset="0" font-family="none" font-weight="none" font-size="none" text-anchor="none" style="mix-blend-mode: normal">
    <g transform="scale(1,1)">
      <path d="M58,29.5v13c0,14.375 -1.125,15.5 -15.5,15.5h-13c-14.375,0 -15.5,-1.125 -15.5,-15.5v-13c0,-14.375 1.125,-15.5 15.5,-15.5h13c14.375,0 15.5,1.125 15.5,15.5zM45.485,41.243c-0.254,-0.254 -2.542,-2.543 -5.242,-5.243c2.7,-2.7 4.989,-4.989 5.243,-5.243c1.171,-1.171 1.172,-3.071 0,-4.243c-1.172,-1.172 -3.071,-1.172 -4.243,0c-0.254,0.255 -2.543,2.543 -5.243,5.243c-2.7,-2.7 -4.989,-4.989 -5.243,-5.243c-1.171,-1.172 -3.071,-1.172 -4.243,0c-1.172,1.172 -1.171,3.071 0,4.243c0.254,0.254 2.542,2.542 5.243,5.243c-2.7,2.7 -4.989,4.989 -5.243,5.243c-1.171,1.172 -1.172,3.071 0,4.243c1.172,1.172 3.071,1.171 4.243,0c0.254,-0.254 2.542,-2.542 5.243,-5.243c2.7,2.7 4.989,4.989 5.243,5.243c1.171,1.171 3.071,1.172 4.243,0c1.171,-1.172 1.171,-3.072 -0.001,-4.243z"></path>
    </g>
  </g>
</svg>